<?xml version="1.0" encoding="utf-8"?>
<!-- Generator: Adobe Illustrator 16.0.4, SVG Export Plug-In . SVG Version: 6.00 Build 0)  -->
<!DOCTYPE svg PUBLIC "-//W3C//DTD SVG 1.1//EN" "http://www.w3.org/Graphics/SVG/1.1/DTD/svg11.dtd">
<svg version="1.1" id="Layer_1" xmlns="http://www.w3.org/2000/svg" xmlns:xlink="http://www.w3.org/1999/xlink" x="0px" y="0px"
	 width="160.175px" height="47.441px" viewBox="0 0 160.175 47.441" enable-background="new 0 0 160.175 47.441"
	 xml:space="preserve">
<polygon fill="#ED1C24" points="94.743,0.3 94.743,23.327 73.427,0.3 60.103,0.3 60.103,30.503 71.947,30.503 71.947,8.373 
	92.078,30.503 106.29,30.503 106.29,0.3 "/>
<g>
	<defs>
		<rect id="SVGID_1_" width="160.175" height="47.441"/>
	</defs>
	<clipPath id="SVGID_2_">
		<use xlink:href="#SVGID_1_"  overflow="visible"/>
	</clipPath>
	<path clip-path="url(#SVGID_2_)" fill-rule="evenodd" clip-rule="evenodd" fill="#ED1C24" d="M160.175,30.503V24.82h-29.31
		c-4.738,0-4.146-2.691-4.146-4.785v-7.774c0-2.093-0.593-5.682,4.146-6.279h29.31V0.299H124.35c-7.992,0-12.138,7.477-12.138,15.55
		c0,7.776,2.96,14.654,11.843,14.654H160.175z"/>
	<path clip-path="url(#SVGID_2_)" fill-rule="evenodd" clip-rule="evenodd" fill="#ED1C24" d="M13.62,30.802
		C3.257,30.802,0,23.625,0,15.849C0,7.476,4.737,0,13.915,0h38.49v5.682H19.541c-5.033,0.897-4.738,4.187-4.738,6.281l0.297,7.773
		c0,2.094-0.592,5.983,4.441,5.685h18.652c1.481-0.602,2.961-2.393,2.961-3.889v-2.989H26.943v-5.385h25.462v17.645H13.62z"/>
	<polygon clip-path="url(#SVGID_2_)" fill="#ED1C24" points="2.487,35.746 4.58,35.746 4.58,46.047 12.333,46.047 12.333,47.441 
		2.487,47.441 	"/>
	<rect x="21.442" y="35.746" clip-path="url(#SVGID_2_)" fill="#ED1C24" width="2.115" height="11.695"/>
	<polygon clip-path="url(#SVGID_2_)" fill="#ED1C24" points="32.939,35.746 37.378,45.706 41.766,35.746 44.111,35.746 
		38.472,47.441 36.252,47.441 30.625,35.746 	"/>
	<polygon clip-path="url(#SVGID_2_)" fill="#ED1C24" points="50.857,35.746 62.071,35.746 62.071,37.179 52.898,37.179 
		52.898,40.73 61.377,40.73 61.377,42.083 52.898,42.083 52.898,46.047 62.229,46.047 62.229,47.441 50.857,47.441 	"/>
	<polygon clip-path="url(#SVGID_2_)" fill="#ED1C24" points="86.805,35.746 89.718,45.248 93.211,35.746 95.474,35.746 
		98.975,45.265 101.888,35.746 104.183,35.746 100.122,47.441 97.924,47.441 94.358,37.744 90.771,47.441 88.572,47.441 
		84.533,35.746 	"/>
	<polygon clip-path="url(#SVGID_2_)" fill="#ED1C24" points="112.212,35.746 123.425,35.746 123.425,37.179 114.254,37.179 
		114.254,40.73 122.731,40.73 122.731,42.083 114.254,42.083 114.254,46.047 123.584,46.047 123.584,47.441 112.212,47.441 	"/>
	<polygon clip-path="url(#SVGID_2_)" fill="#ED1C24" points="131.271,35.746 133.364,35.746 133.364,46.047 141.117,46.047 
		141.117,47.441 131.271,47.441 	"/>
	<polygon clip-path="url(#SVGID_2_)" fill="#ED1C24" points="149.215,35.746 151.309,35.746 151.309,46.047 159.062,46.047 
		159.062,47.441 149.215,47.441 	"/>
</g>
</svg>
